<svg height="300" version="1.1" width="300" xmlns="http://www.w3.org/2000/svg"
  style="overflow: hidden; position: absolute; left: 360px; top: 20px;">
  <desc>Created with Raphaël 2.0.0</desc>
  <defs>
    <linearGradient id="4330--fff--fff" x1="0" y1="0" x2="1" y2="0" gradientTransform="matrix(1,0,0,1,0,0)">
      <stop offset="0%" stop-color="#ffffff"></stop>
      <stop offset="100%" stop-color="#ffffff" stop-opacity="0"></stop>
    </linearGradient>
    <linearGradient id="43490--000--000" x1="0" y1="1" x2="6.123233995736766e-17" y2="0"
      gradientTransform="matrix(1,0,0,1,0,0)">
      <stop offset="0%" stop-color="#000000"></stop>
      <stop offset="100%" stop-color="#000000" stop-opacity="0"></stop>
    </linearGradient>
  </defs>
  <path style="" fill="#c60000" stroke="none"
    d="M150,3A147,147,0,0,1,156.36800661309204,3.1379950709659568L155.06841342674673,33.10983281158515A117,117,0,0,0,150,33Z"
    transform="matrix(1,0,0,1,0,0)"></path>
  <path style="" fill="#c60600" stroke="none"
    d="M150,3A147,147,0,0,1,156.36800661309204,3.1379950709659568L155.06841342674673,33.10983281158515A117,117,0,0,0,150,33Z"
    transform="matrix(0.9994,0.0333,-0.0333,0.9994,5.0824,-4.9157)"></path>
  <path style="" fill="#c60c00" stroke="none"
    d="M150,3A147,147,0,0,1,156.36800661309204,3.1379950709659568L155.06841342674673,33.10983281158515A117,117,0,0,0,150,33Z"
    transform="matrix(0.9978,0.0666,-0.0666,0.9978,10.3258,-9.6594)"></path>
  <path style="" fill="#c61200" stroke="none"
    d="M150,3A147,147,0,0,1,156.36800661309204,3.1379950709659568L155.06841342674673,33.10983281158515A117,117,0,0,0,150,33Z"
    transform="matrix(0.995,0.0998,-0.0998,0.995,15.7244,-14.2256)"></path>
  <path style="" fill="#c61900" stroke="none"
    d="M150,3A147,147,0,0,1,156.36800661309204,3.1379950709659568L155.06841342674673,33.10983281158515A117,117,0,0,0,150,33Z"
    transform="matrix(0.9911,0.1329,-0.1329,0.9911,21.2722,-18.6094)"></path>
  <path style="" fill="#c61f00" stroke="none"
    d="M150,3A147,147,0,0,1,156.36800661309204,3.1379950709659568L155.06841342674673,33.10983281158515A117,117,0,0,0,150,33Z"
    transform="matrix(0.9861,0.1659,-0.1659,0.9861,26.9629,-22.8059)"></path>
  <path style="" fill="#c62500" stroke="none"
    d="M150,3A147,147,0,0,1,156.36800661309204,3.1379950709659568L155.06841342674673,33.10983281158515A117,117,0,0,0,150,33Z"
    transform="matrix(0.9801,0.1987,-0.1987,0.9801,32.7904,-26.8104)"></path>
  <path style="" fill="#c62c00" stroke="none"
    d="M150,3A147,147,0,0,1,156.36800661309204,3.1379950709659568L155.06841342674673,33.10983281158515A117,117,0,0,0,150,33Z"
    transform="matrix(0.9729,0.2312,-0.2312,0.9729,38.7481,-30.6184)"></path>
  <path style="" fill="#c63200" stroke="none"
    d="M150,3A147,147,0,0,1,156.36800661309204,3.1379950709659568L155.06841342674673,33.10983281158515A117,117,0,0,0,150,33Z"
    transform="matrix(0.9647,0.2635,-0.2635,0.9647,44.8294,-34.2258)"></path>
  <path style="" fill="#c63800" stroke="none"
    d="M150,3A147,147,0,0,1,156.36800661309204,3.1379950709659568L155.06841342674673,33.10983281158515A117,117,0,0,0,150,33Z"
    transform="matrix(0.9553,0.2955,-0.2955,0.9553,51.0276,-37.6285)"></path>
  <path style="" fill="#c63f00" stroke="none"
    d="M150,3A147,147,0,0,1,156.36800661309204,3.1379950709659568L155.06841342674673,33.10983281158515A117,117,0,0,0,150,33Z"
    transform="matrix(0.945,0.3272,-0.3272,0.945,57.3357,-40.8227)"></path>
  <path style="" fill="#c64500" stroke="none"
    d="M150,3A147,147,0,0,1,156.36800661309204,3.1379950709659568L155.06841342674673,33.10983281158515A117,117,0,0,0,150,33Z"
    transform="matrix(0.9335,0.3585,-0.3585,0.9335,63.7467,-43.805)"></path>
  <path style="" fill="#c64b00" stroke="none"
    d="M150,3A147,147,0,0,1,156.36800661309204,3.1379950709659568L155.06841342674673,33.10983281158515A117,117,0,0,0,150,33Z"
    transform="matrix(0.9211,0.3894,-0.3894,0.9211,70.2536,-46.5719)"></path>
  <path style="" fill="#c65200" stroke="none"
    d="M150,3A147,147,0,0,1,156.36800661309204,3.1379950709659568L155.06841342674673,33.10983281158515A117,117,0,0,0,150,33Z"
    transform="matrix(0.9076,0.4199,-0.4199,0.9076,76.8491,-49.1204)"></path>
  <path style="" fill="#c65800" stroke="none"
    d="M150,3A147,147,0,0,1,156.36800661309204,3.1379950709659568L155.06841342674673,33.10983281158515A117,117,0,0,0,150,33Z"
    transform="matrix(0.8931,0.4499,-0.4499,0.8931,83.5258,-51.4477)"></path>
  <path style="" fill="#c65e00" stroke="none"
    d="M150,3A147,147,0,0,1,156.36800661309204,3.1379950709659568L155.06841342674673,33.10983281158515A117,117,0,0,0,150,33Z"
    transform="matrix(0.8776,0.4794,-0.4794,0.8776,90.2764,-53.5512)"></path>
  <path style="" fill="#c66500" stroke="none"
    d="M150,3A147,147,0,0,1,156.36800661309204,3.1379950709659568L155.06841342674673,33.10983281158515A117,117,0,0,0,150,33Z"
    transform="matrix(0.8611,0.5084,-0.5084,0.8611,97.0934,-55.4286)"></path>
  <path style="" fill="#c66b00" stroke="none"
    d="M150,3A147,147,0,0,1,156.36800661309204,3.1379950709659568L155.06841342674673,33.10983281158515A117,117,0,0,0,150,33Z"
    transform="matrix(0.8437,0.5368,-0.5368,0.8437,103.9691,-57.0777)"></path>
  <path style="" fill="#c67100" stroke="none"
    d="M150,3A147,147,0,0,1,156.36800661309204,3.1379950709659568L155.06841342674673,33.10983281158515A117,117,0,0,0,150,33Z"
    transform="matrix(0.8253,0.5646,-0.5646,0.8253,110.896,-58.4967)"></path>
  <path style="" fill="#c67800" stroke="none"
    d="M150,3A147,147,0,0,1,156.36800661309204,3.1379950709659568L155.06841342674673,33.10983281158515A117,117,0,0,0,150,33Z"
    transform="matrix(0.8061,0.5918,-0.5918,0.8061,117.8664,-59.6841)"></path>
  <path style="" fill="#c67e00" stroke="none"
    d="M150,3A147,147,0,0,1,156.36800661309204,3.1379950709659568L155.06841342674673,33.10983281158515A117,117,0,0,0,150,33Z"
    transform="matrix(0.7859,0.6184,-0.6184,0.7859,124.8724,-60.6386)"></path>
  <path style="" fill="#c68400" stroke="none"
    d="M150,3A147,147,0,0,1,156.36800661309204,3.1379950709659568L155.06841342674673,33.10983281158515A117,117,0,0,0,150,33Z"
    transform="matrix(0.7648,0.6442,-0.6442,0.7648,131.9063,-61.359)"></path>
  <path style="" fill="#c68b00" stroke="none"
    d="M150,3A147,147,0,0,1,156.36800661309204,3.1379950709659568L155.06841342674673,33.10983281158515A117,117,0,0,0,150,33Z"
    transform="matrix(0.7429,0.6693,-0.6693,0.7429,138.9604,-61.8446)"></path>
  <path style="" fill="#c69100" stroke="none"
    d="M150,3A147,147,0,0,1,156.36800661309204,3.1379950709659568L155.06841342674673,33.10983281158515A117,117,0,0,0,150,33Z"
    transform="matrix(0.7202,0.6937,-0.6937,0.7202,146.0267,-62.0948)"></path>
  <path style="" fill="#c69700" stroke="none"
    d="M150,3A147,147,0,0,1,156.36800661309204,3.1379950709659568L155.06841342674673,33.10983281158515A117,117,0,0,0,150,33Z"
    transform="matrix(0.6967,0.7174,-0.7174,0.6967,153.0974,-62.1094)"></path>
  <path style="" fill="#c69e00" stroke="none"
    d="M150,3A147,147,0,0,1,156.36800661309204,3.1379950709659568L155.06841342674673,33.10983281158515A117,117,0,0,0,150,33Z"
    transform="matrix(0.6724,0.7402,-0.7402,0.6724,160.1647,-61.8884)"></path>
  <path style="" fill="#c6a400" stroke="none"
    d="M150,3A147,147,0,0,1,156.36800661309204,3.1379950709659568L155.06841342674673,33.10983281158515A117,117,0,0,0,150,33Z"
    transform="matrix(0.6474,0.7622,-0.7622,0.6474,167.2207,-61.4319)"></path>
  <path style="" fill="#c6aa00" stroke="none"
    d="M150,3A147,147,0,0,1,156.36800661309204,3.1379950709659568L155.06841342674673,33.10983281158515A117,117,0,0,0,150,33Z"
    transform="matrix(0.6216,0.7833,-0.7833,0.6216,174.2575,-60.7405)"></path>
  <path style="" fill="#c6b100" stroke="none"
    d="M150,3A147,147,0,0,1,156.36800661309204,3.1379950709659568L155.06841342674673,33.10983281158515A117,117,0,0,0,150,33Z"
    transform="matrix(0.5952,0.8036,-0.8036,0.5952,181.2674,-59.815)"></path>
  <path style="" fill="#c6b700" stroke="none"
    d="M150,3A147,147,0,0,1,156.36800661309204,3.1379950709659568L155.06841342674673,33.10983281158515A117,117,0,0,0,150,33Z"
    transform="matrix(0.568,0.823,-0.823,0.568,188.2426,-58.6564)"></path>
  <path style="" fill="#c6bd00" stroke="none"
    d="M150,3A147,147,0,0,1,156.36800661309204,3.1379950709659568L155.06841342674673,33.10983281158515A117,117,0,0,0,150,33Z"
    transform="matrix(0.5403,0.8415,-0.8415,0.5403,195.1753,-57.266)"></path>
  <path style="" fill="#c6c400" stroke="none"
    d="M150,3A147,147,0,0,1,156.36800661309204,3.1379950709659568L155.06841342674673,33.10983281158515A117,117,0,0,0,150,33Z"
    transform="matrix(0.512,0.859,-0.859,0.512,202.0578,-55.6453)"></path>
  <path style="" fill="#c3c600" stroke="none"
    d="M150,3A147,147,0,0,1,156.36800661309204,3.1379950709659568L155.06841342674673,33.10983281158515A117,117,0,0,0,150,33Z"
    transform="matrix(0.483,0.8756,-0.8756,0.483,208.8824,-53.7961)"></path>
  <path style="" fill="#bcc600" stroke="none"
    d="M150,3A147,147,0,0,1,156.36800661309204,3.1379950709659568L155.06841342674673,33.10983281158515A117,117,0,0,0,150,33Z"
    transform="matrix(0.4536,0.8912,-0.8912,0.4536,215.6417,-51.7205)"></path>
  <path style="" fill="#b6c600" stroke="none"
    d="M150,3A147,147,0,0,1,156.36800661309204,3.1379950709659568L155.06841342674673,33.10983281158515A117,117,0,0,0,150,33Z"
    transform="matrix(0.4236,0.9058,-0.9058,0.4236,222.328,-49.4208)"></path>
  <path style="" fill="#b0c600" stroke="none"
    d="M150,3A147,147,0,0,1,156.36800661309204,3.1379950709659568L155.06841342674673,33.10983281158515A117,117,0,0,0,150,33Z"
    transform="matrix(0.3932,0.9194,-0.9194,0.3932,228.9339,-46.8995)"></path>
  <path style="" fill="#a9c600" stroke="none"
    d="M150,3A147,147,0,0,1,156.36800661309204,3.1379950709659568L155.06841342674673,33.10983281158515A117,117,0,0,0,150,33Z"
    transform="matrix(0.3624,0.932,-0.932,0.3624,235.4522,-44.1595)"></path>
  <path style="" fill="#a3c600" stroke="none"
    d="M150,3A147,147,0,0,1,156.36800661309204,3.1379950709659568L155.06841342674673,33.10983281158515A117,117,0,0,0,150,33Z"
    transform="matrix(0.3311,0.9436,-0.9436,0.3311,241.8755,-41.2038)"></path>
  <path style="" fill="#9dc600" stroke="none"
    d="M150,3A147,147,0,0,1,156.36800661309204,3.1379950709659568L155.06841342674673,33.10983281158515A117,117,0,0,0,150,33Z"
    transform="matrix(0.2995,0.9541,-0.9541,0.2995,248.1968,-38.0356)"></path>
  <path style="" fill="#96c600" stroke="none"
    d="M150,3A147,147,0,0,1,156.36800661309204,3.1379950709659568L155.06841342674673,33.10983281158515A117,117,0,0,0,150,33Z"
    transform="matrix(0.2675,0.9636,-0.9636,0.2675,254.4089,-34.6586)"></path>
  <path style="" fill="#90c600" stroke="none"
    d="M150,3A147,147,0,0,1,156.36800661309204,3.1379950709659568L155.06841342674673,33.10983281158515A117,117,0,0,0,150,33Z"
    transform="matrix(0.2352,0.9719,-0.9719,0.2352,260.505,-31.0763)"></path>
  <path style="" fill="#8ac600" stroke="none"
    d="M150,3A147,147,0,0,1,156.36800661309204,3.1379950709659568L155.06841342674673,33.10983281158515A117,117,0,0,0,150,33Z"
    transform="matrix(0.2027,0.9792,-0.9792,0.2027,266.4784,-27.2929)"></path>
  <path style="" fill="#83c600" stroke="none"
    d="M150,3A147,147,0,0,1,156.36800661309204,3.1379950709659568L155.06841342674673,33.10983281158515A117,117,0,0,0,150,33Z"
    transform="matrix(0.17,0.9854,-0.9854,0.17,272.3224,-23.3125)"></path>
  <path style="" fill="#7dc600" stroke="none"
    d="M150,3A147,147,0,0,1,156.36800661309204,3.1379950709659568L155.06841342674673,33.10983281158515A117,117,0,0,0,150,33Z"
    transform="matrix(0.137,0.9906,-0.9906,0.137,278.0305,-19.1396)"></path>
  <path style="" fill="#77c600" stroke="none"
    d="M150,3A147,147,0,0,1,156.36800661309204,3.1379950709659568L155.06841342674673,33.10983281158515A117,117,0,0,0,150,33Z"
    transform="matrix(0.1039,0.9946,-0.9946,0.1039,283.5963,-14.7787)"></path>
  <path style="" fill="#70c600" stroke="none"
    d="M150,3A147,147,0,0,1,156.36800661309204,3.1379950709659568L155.06841342674673,33.10983281158515A117,117,0,0,0,150,33Z"
    transform="matrix(0.0707,0.9975,-0.9975,0.0707,289.0137,-10.2348)"></path>
  <path style="" fill="#6ac600" stroke="none"
    d="M150,3A147,147,0,0,1,156.36800661309204,3.1379950709659568L155.06841342674673,33.10983281158515A117,117,0,0,0,150,33Z"
    transform="matrix(0.0375,0.9993,-0.9993,0.0375,294.2766,-5.5129)"></path>
  <path style="" fill="#64c600" stroke="none"
    d="M150,3A147,147,0,0,1,156.36800661309204,3.1379950709659568L155.06841342674673,33.10983281158515A117,117,0,0,0,150,33Z"
    transform="matrix(0.0041,1,-1,0.0041,299.3793,-0.6182)"></path>
  <path style="" fill="#5dc600" stroke="none"
    d="M150,3A147,147,0,0,1,156.36800661309204,3.1379950709659568L155.06841342674673,33.10983281158515A117,117,0,0,0,150,33Z"
    transform="matrix(-0.0292,0.9996,-0.9996,-0.0292,304.316,4.4439)"></path>
  <path style="" fill="#57c600" stroke="none"
    d="M150,3A147,147,0,0,1,156.36800661309204,3.1379950709659568L155.06841342674673,33.10983281158515A117,117,0,0,0,150,33Z"
    transform="matrix(-0.0625,0.998,-0.998,-0.0625,309.0812,9.6677)"></path>
  <path style="" fill="#51c600" stroke="none"
    d="M150,3A147,147,0,0,1,156.36800661309204,3.1379950709659568L155.06841342674673,33.10983281158515A117,117,0,0,0,150,33Z"
    transform="matrix(-0.0957,0.9954,-0.9954,-0.0957,313.6697,15.0473)"></path>
  <path style="" fill="#4ac600" stroke="none"
    d="M150,3A147,147,0,0,1,156.36800661309204,3.1379950709659568L155.06841342674673,33.10983281158515A117,117,0,0,0,150,33Z"
    transform="matrix(-0.1288,0.9917,-0.9917,-0.1288,318.0764,20.577)"></path>
  <path style="" fill="#44c600" stroke="none"
    d="M150,3A147,147,0,0,1,156.36800661309204,3.1379950709659568L155.06841342674673,33.10983281158515A117,117,0,0,0,150,33Z"
    transform="matrix(-0.1618,0.9868,-0.9868,-0.1618,322.2963,26.2504)"></path>
  <path style="" fill="#3ec600" stroke="none"
    d="M150,3A147,147,0,0,1,156.36800661309204,3.1379950709659568L155.06841342674673,33.10983281158515A117,117,0,0,0,150,33Z"
    transform="matrix(-0.1946,0.9809,-0.9809,-0.1946,326.3248,32.0612)"></path>
  <path style="" fill="#37c600" stroke="none"
    d="M150,3A147,147,0,0,1,156.36800661309204,3.1379950709659568L155.06841342674673,33.10983281158515A117,117,0,0,0,150,33Z"
    transform="matrix(-0.2272,0.9738,-0.9738,-0.2272,330.1575,38.0032)"></path>
  <path style="" fill="#31c600" stroke="none"
    d="M150,3A147,147,0,0,1,156.36800661309204,3.1379950709659568L155.06841342674673,33.10983281158515A117,117,0,0,0,150,33Z"
    transform="matrix(-0.2595,0.9657,-0.9657,-0.2595,333.7899,44.0695)"></path>
  <path style="" fill="#2bc600" stroke="none"
    d="M150,3A147,147,0,0,1,156.36800661309204,3.1379950709659568L155.06841342674673,33.10983281158515A117,117,0,0,0,150,33Z"
    transform="matrix(-0.2916,0.9565,-0.9565,-0.2916,337.2182,50.2536)"></path>
  <path style="" fill="#24c600" stroke="none"
    d="M150,3A147,147,0,0,1,156.36800661309204,3.1379950709659568L155.06841342674673,33.10983281158515A117,117,0,0,0,150,33Z"
    transform="matrix(-0.3233,0.9463,-0.9463,-0.3233,340.4384,56.5484)"></path>
  <path style="" fill="#1ec600" stroke="none"
    d="M150,3A147,147,0,0,1,156.36800661309204,3.1379950709659568L155.06841342674673,33.10983281158515A117,117,0,0,0,150,33Z"
    transform="matrix(-0.3546,0.935,-0.935,-0.3546,343.4471,62.9471)"></path>
  <path style="" fill="#18c600" stroke="none"
    d="M150,3A147,147,0,0,1,156.36800661309204,3.1379950709659568L155.06841342674673,33.10983281158515A117,117,0,0,0,150,33Z"
    transform="matrix(-0.3856,0.9227,-0.9227,-0.3856,346.2409,69.4425)"></path>
  <path style="" fill="#11c600" stroke="none"
    d="M150,3A147,147,0,0,1,156.36800661309204,3.1379950709659568L155.06841342674673,33.10983281158515A117,117,0,0,0,150,33Z"
    transform="matrix(-0.4161,0.9093,-0.9093,-0.4161,348.8166,76.0274)"></path>
  <path style="" fill="#0bc600" stroke="none"
    d="M150,3A147,147,0,0,1,156.36800661309204,3.1379950709659568L155.06841342674673,33.10983281158515A117,117,0,0,0,150,33Z"
    transform="matrix(-0.4462,0.8949,-0.8949,-0.4462,351.1715,82.6945)"></path>
  <path style="" fill="#05c600" stroke="none"
    d="M150,3A147,147,0,0,1,156.36800661309204,3.1379950709659568L155.06841342674673,33.10983281158515A117,117,0,0,0,150,33Z"
    transform="matrix(-0.4758,0.8796,-0.8796,-0.4758,353.3028,89.4364)"></path>
  <path style="" fill="#00c601" stroke="none"
    d="M150,3A147,147,0,0,1,156.36800661309204,3.1379950709659568L155.06841342674673,33.10983281158515A117,117,0,0,0,150,33Z"
    transform="matrix(-0.5048,0.8632,-0.8632,-0.5048,355.2083,96.2455)"></path>
  <path style="" fill="#00c607" stroke="none"
    d="M150,3A147,147,0,0,1,156.36800661309204,3.1379950709659568L155.06841342674673,33.10983281158515A117,117,0,0,0,150,33Z"
    transform="matrix(-0.5333,0.8459,-0.8459,-0.5333,356.8858,103.1144)"></path>
  <path style="" fill="#00c60d" stroke="none"
    d="M150,3A147,147,0,0,1,156.36800661309204,3.1379950709659568L155.06841342674673,33.10983281158515A117,117,0,0,0,150,33Z"
    transform="matrix(-0.5612,0.8277,-0.8277,-0.5612,358.3334,110.0353)"></path>
  <path style="" fill="#00c614" stroke="none"
    d="M150,3A147,147,0,0,1,156.36800661309204,3.1379950709659568L155.06841342674673,33.10983281158515A117,117,0,0,0,150,33Z"
    transform="matrix(-0.5885,0.8085,-0.8085,-0.5885,359.5496,117.0007)"></path>
  <path style="" fill="#00c61a" stroke="none"
    d="M150,3A147,147,0,0,1,156.36800661309204,3.1379950709659568L155.06841342674673,33.10983281158515A117,117,0,0,0,150,33Z"
    transform="matrix(-0.6151,0.7884,-0.7884,-0.6151,360.533,124.0027)"></path>
  <path style="" fill="#00c620" stroke="none"
    d="M150,3A147,147,0,0,1,156.36800661309204,3.1379950709659568L155.06841342674673,33.10983281158515A117,117,0,0,0,150,33Z"
    transform="matrix(-0.6411,0.7675,-0.7675,-0.6411,361.2825,131.0336)"></path>
  <path style="" fill="#00c627" stroke="none"
    d="M150,3A147,147,0,0,1,156.36800661309204,3.1379950709659568L155.06841342674673,33.10983281158515A117,117,0,0,0,150,33Z"
    transform="matrix(-0.6663,0.7457,-0.7457,-0.6663,361.7972,138.0856)"></path>
  <path style="" fill="#00c62d" stroke="none"
    d="M150,3A147,147,0,0,1,156.36800661309204,3.1379950709659568L155.06841342674673,33.10983281158515A117,117,0,0,0,150,33Z"
    transform="matrix(-0.6908,0.7231,-0.7231,-0.6908,362.0766,145.1508)"></path>
  <path style="" fill="#00c633" stroke="none"
    d="M150,3A147,147,0,0,1,156.36800661309204,3.1379950709659568L155.06841342674673,33.10983281158515A117,117,0,0,0,150,33Z"
    transform="matrix(-0.7145,0.6997,-0.6997,-0.7145,362.1204,152.2214)"></path>
  <path style="" fill="#00c63a" stroke="none"
    d="M150,3A147,147,0,0,1,156.36800661309204,3.1379950709659568L155.06841342674673,33.10983281158515A117,117,0,0,0,150,33Z"
    transform="matrix(-0.7374,0.6755,-0.6755,-0.7374,361.9285,159.2896)"></path>
  <path style="" fill="#00c640" stroke="none"
    d="M150,3A147,147,0,0,1,156.36800661309204,3.1379950709659568L155.06841342674673,33.10983281158515A117,117,0,0,0,150,33Z"
    transform="matrix(-0.7595,0.6505,-0.6505,-0.7595,361.5012,166.3474)"></path>
  <path style="" fill="#00c646" stroke="none"
    d="M150,3A147,147,0,0,1,156.36800661309204,3.1379950709659568L155.06841342674673,33.10983281158515A117,117,0,0,0,150,33Z"
    transform="matrix(-0.7808,0.6248,-0.6248,-0.7808,360.8389,173.3871)"></path>
  <path style="" fill="#00c64d" stroke="none"
    d="M150,3A147,147,0,0,1,156.36800661309204,3.1379950709659568L155.06841342674673,33.10983281158515A117,117,0,0,0,150,33Z"
    transform="matrix(-0.8011,0.5985,-0.5985,-0.8011,359.9424,180.4007)"></path>
  <path style="" fill="#00c653" stroke="none"
    d="M150,3A147,147,0,0,1,156.36800661309204,3.1379950709659568L155.06841342674673,33.10983281158515A117,117,0,0,0,150,33Z"
    transform="matrix(-0.8206,0.5714,-0.5714,-0.8206,358.8126,187.3806)"></path>
  <path style="" fill="#00c659" stroke="none"
    d="M150,3A147,147,0,0,1,156.36800661309204,3.1379950709659568L155.06841342674673,33.10983281158515A117,117,0,0,0,150,33Z"
    transform="matrix(-0.8392,0.5438,-0.5438,-0.8392,357.4508,194.319)"></path>
  <path style="" fill="#00c660" stroke="none"
    d="M150,3A147,147,0,0,1,156.36800661309204,3.1379950709659568L155.06841342674673,33.10983281158515A117,117,0,0,0,150,33Z"
    transform="matrix(-0.8569,0.5155,-0.5155,-0.8569,355.8585,201.2081)"></path>
  <path style="" fill="#00c666" stroke="none"
    d="M150,3A147,147,0,0,1,156.36800661309204,3.1379950709659568L155.06841342674673,33.10983281158515A117,117,0,0,0,150,33Z"
    transform="matrix(-0.8736,0.4867,-0.4867,-0.8736,354.0375,208.0403)"></path>
  <path style="" fill="#00c66c" stroke="none"
    d="M150,3A147,147,0,0,1,156.36800661309204,3.1379950709659568L155.06841342674673,33.10983281158515A117,117,0,0,0,150,33Z"
    transform="matrix(-0.8893,0.4573,-0.4573,-0.8893,351.9899,214.8081)"></path>
  <path style="" fill="#00c673" stroke="none"
    d="M150,3A147,147,0,0,1,156.36800661309204,3.1379950709659568L155.06841342674673,33.10983281158515A117,117,0,0,0,150,33Z"
    transform="matrix(-0.9041,0.4274,-0.4274,-0.9041,349.7178,221.5038)"></path>
  <path style="" fill="#00c679" stroke="none"
    d="M150,3A147,147,0,0,1,156.36800661309204,3.1379950709659568L155.06841342674673,33.10983281158515A117,117,0,0,0,150,33Z"
    transform="matrix(-0.9178,0.397,-0.397,-0.9178,347.2238,228.1201)"></path>
  <path style="" fill="#00c67f" stroke="none"
    d="M150,3A147,147,0,0,1,156.36800661309204,3.1379950709659568L155.06841342674673,33.10983281158515A117,117,0,0,0,150,33Z"
    transform="matrix(-0.9305,0.3662,-0.3662,-0.9305,344.5108,234.6497)"></path>
  <path style="" fill="#00c686" stroke="none"
    d="M150,3A147,147,0,0,1,156.36800661309204,3.1379950709659568L155.06841342674673,33.10983281158515A117,117,0,0,0,150,33Z"
    transform="matrix(-0.9422,0.335,-0.335,-0.9422,341.5816,241.0851)"></path>
  <path style="" fill="#00c68c" stroke="none"
    d="M150,3A147,147,0,0,1,156.36800661309204,3.1379950709659568L155.06841342674673,33.10983281158515A117,117,0,0,0,150,33Z"
    transform="matrix(-0.9529,0.3034,-0.3034,-0.9529,338.4395,247.4194)"></path>
  <path style="" fill="#00c692" stroke="none"
    d="M150,3A147,147,0,0,1,156.36800661309204,3.1379950709659568L155.06841342674673,33.10983281158515A117,117,0,0,0,150,33Z"
    transform="matrix(-0.9624,0.2715,-0.2715,-0.9624,335.0881,253.6454)"></path>
  <path style="" fill="#00c699" stroke="none"
    d="M150,3A147,147,0,0,1,156.36800661309204,3.1379950709659568L155.06841342674673,33.10983281158515A117,117,0,0,0,150,33Z"
    transform="matrix(-0.971,0.2392,-0.2392,-0.971,331.5311,259.7563)"></path>
  <path style="" fill="#00c69f" stroke="none"
    d="M150,3A147,147,0,0,1,156.36800661309204,3.1379950709659568L155.06841342674673,33.10983281158515A117,117,0,0,0,150,33Z"
    transform="matrix(-0.9784,0.2068,-0.2068,-0.9784,327.7724,265.7453)"></path>
  <path style="" fill="#00c6a5" stroke="none"
    d="M150,3A147,147,0,0,1,156.36800661309204,3.1379950709659568L155.06841342674673,33.10983281158515A117,117,0,0,0,150,33Z"
    transform="matrix(-0.9847,0.174,-0.174,-0.9847,323.8162,271.6056)"></path>
  <path style="" fill="#00c6ac" stroke="none"
    d="M150,3A147,147,0,0,1,156.36800661309204,3.1379950709659568L155.06841342674673,33.10983281158515A117,117,0,0,0,150,33Z"
    transform="matrix(-0.99,0.1411,-0.1411,-0.99,319.6669,277.3309)"></path>
  <path style="" fill="#00c6b2" stroke="none"
    d="M150,3A147,147,0,0,1,156.36800661309204,3.1379950709659568L155.06841342674673,33.10983281158515A117,117,0,0,0,150,33Z"
    transform="matrix(-0.9941,0.108,-0.108,-0.9941,315.329,282.9147)"></path>
  <path style="" fill="#00c6b8" stroke="none"
    d="M150,3A147,147,0,0,1,156.36800661309204,3.1379950709659568L155.06841342674673,33.10983281158515A117,117,0,0,0,150,33Z"
    transform="matrix(-0.9972,0.0749,-0.0749,-0.9972,310.8075,288.3508)"></path>
  <path style="" fill="#00c6bf" stroke="none"
    d="M150,3A147,147,0,0,1,156.36800661309204,3.1379950709659568L155.06841342674673,33.10983281158515A117,117,0,0,0,150,33Z"
    transform="matrix(-0.9991,0.0416,-0.0416,-0.9991,306.1074,293.6332)"></path>
  <path style="" fill="#00c6c5" stroke="none"
    d="M150,3A147,147,0,0,1,156.36800661309204,3.1379950709659568L155.06841342674673,33.10983281158515A117,117,0,0,0,150,33Z"
    transform="matrix(-1,0.0083,-0.0083,-1,301.2338,298.756)"></path>
  <path style="" fill="#00c2c6" stroke="none"
    d="M150,3A147,147,0,0,1,156.36800661309204,3.1379950709659568L155.06841342674673,33.10983281158515A117,117,0,0,0,150,33Z"
    transform="matrix(-0.9997,-0.0251,0.0251,-0.9997,296.1921,303.7136)"></path>
  <path style="" fill="#00bbc6" stroke="none"
    d="M150,3A147,147,0,0,1,156.36800661309204,3.1379950709659568L155.06841342674673,33.10983281158515A117,117,0,0,0,150,33Z"
    transform="matrix(-0.9983,-0.0584,0.0584,-0.9983,290.9881,308.5003)"></path>
  <path style="" fill="#00b5c6" stroke="none"
    d="M150,3A147,147,0,0,1,156.36800661309204,3.1379950709659568L155.06841342674673,33.10983281158515A117,117,0,0,0,150,33Z"
    transform="matrix(-0.9958,-0.0916,0.0916,-0.9958,285.6274,313.111)"></path>
  <path style="" fill="#00afc6" stroke="none"
    d="M150,3A147,147,0,0,1,156.36800661309204,3.1379950709659568L155.06841342674673,33.10983281158515A117,117,0,0,0,150,33Z"
    transform="matrix(-0.9922,-0.1247,0.1247,-0.9922,280.116,317.5405)"></path>
  <path style="" fill="#00a8c6" stroke="none"
    d="M150,3A147,147,0,0,1,156.36800661309204,3.1379950709659568L155.06841342674673,33.10983281158515A117,117,0,0,0,150,33Z"
    transform="matrix(-0.9875,-0.1577,0.1577,-0.9875,274.4601,321.7838)"></path>
  <path style="" fill="#00a2c6" stroke="none"
    d="M150,3A147,147,0,0,1,156.36800661309204,3.1379950709659568L155.06841342674673,33.10983281158515A117,117,0,0,0,150,33Z"
    transform="matrix(-0.9817,-0.1906,0.1906,-0.9817,268.6659,325.8363)"></path>
  <path style="" fill="#009cc6" stroke="none"
    d="M150,3A147,147,0,0,1,156.36800661309204,3.1379950709659568L155.06841342674673,33.10983281158515A117,117,0,0,0,150,33Z"
    transform="matrix(-0.9748,-0.2232,0.2232,-0.9748,262.7399,329.6934)"></path>
  <path style="" fill="#0095c6" stroke="none"
    d="M150,3A147,147,0,0,1,156.36800661309204,3.1379950709659568L155.06841342674673,33.10983281158515A117,117,0,0,0,150,33Z"
    transform="matrix(-0.9668,-0.2555,0.2555,-0.9668,256.6886,333.3509)"></path>
  <path style="" fill="#008fc6" stroke="none"
    d="M150,3A147,147,0,0,1,156.36800661309204,3.1379950709659568L155.06841342674673,33.10983281158515A117,117,0,0,0,150,33Z"
    transform="matrix(-0.9577,-0.2876,0.2876,-0.9577,250.5187,336.8047)"></path>
  <path style="" fill="#0089c6" stroke="none"
    d="M150,3A147,147,0,0,1,156.36800661309204,3.1379950709659568L155.06841342674673,33.10983281158515A117,117,0,0,0,150,33Z"
    transform="matrix(-0.9476,-0.3194,0.3194,-0.9476,244.2372,340.0509)"></path>
  <path style="" fill="#0082c6" stroke="none"
    d="M150,3A147,147,0,0,1,156.36800661309204,3.1379950709659568L155.06841342674673,33.10983281158515A117,117,0,0,0,150,33Z"
    transform="matrix(-0.9365,-0.3508,0.3508,-0.9365,237.851,343.086)"></path>
  <path style="" fill="#007cc6" stroke="none"
    d="M150,3A147,147,0,0,1,156.36800661309204,3.1379950709659568L155.06841342674673,33.10983281158515A117,117,0,0,0,150,33Z"
    transform="matrix(-0.9242,-0.3818,0.3818,-0.9242,231.3672,345.9066)"></path>
  <path style="" fill="#0076c6" stroke="none"
    d="M150,3A147,147,0,0,1,156.36800661309204,3.1379950709659568L155.06841342674673,33.10983281158515A117,117,0,0,0,150,33Z"
    transform="matrix(-0.911,-0.4124,0.4124,-0.911,224.793,348.5095)"></path>
  <path style="" fill="#006fc6" stroke="none"
    d="M150,3A147,147,0,0,1,156.36800661309204,3.1379950709659568L155.06841342674673,33.10983281158515A117,117,0,0,0,150,33Z"
    transform="matrix(-0.8968,-0.4425,0.4425,-0.8968,218.1357,350.8918)"></path>
  <path style="" fill="#0069c6" stroke="none"
    d="M150,3A147,147,0,0,1,156.36800661309204,3.1379950709659568L155.06841342674673,33.10983281158515A117,117,0,0,0,150,33Z"
    transform="matrix(-0.8815,-0.4722,0.4722,-0.8815,211.4027,353.051)"></path>
  <path style="" fill="#0063c6" stroke="none"
    d="M150,3A147,147,0,0,1,156.36800661309204,3.1379950709659568L155.06841342674673,33.10983281158515A117,117,0,0,0,150,33Z"
    transform="matrix(-0.8653,-0.5013,0.5013,-0.8653,204.6015,354.9846)"></path>
  <path style="" fill="#005cc6" stroke="none"
    d="M150,3A147,147,0,0,1,156.36800661309204,3.1379950709659568L155.06841342674673,33.10983281158515A117,117,0,0,0,150,33Z"
    transform="matrix(-0.8481,-0.5298,0.5298,-0.8481,197.7396,356.6904)"></path>
  <path style="" fill="#0056c6" stroke="none"
    d="M150,3A147,147,0,0,1,156.36800661309204,3.1379950709659568L155.06841342674673,33.10983281158515A117,117,0,0,0,150,33Z"
    transform="matrix(-0.83,-0.5578,0.5578,-0.83,190.8247,358.1666)"></path>
  <path style="" fill="#0050c6" stroke="none"
    d="M150,3A147,147,0,0,1,156.36800661309204,3.1379950709659568L155.06841342674673,33.10983281158515A117,117,0,0,0,150,33Z"
    transform="matrix(-0.8109,-0.5852,0.5852,-0.8109,183.8644,359.4116)"></path>
  <path style="" fill="#0049c6" stroke="none"
    d="M150,3A147,147,0,0,1,156.36800661309204,3.1379950709659568L155.06841342674673,33.10983281158515A117,117,0,0,0,150,33Z"
    transform="matrix(-0.791,-0.6119,0.6119,-0.791,176.8665,360.4238)"></path>
  <path style="" fill="#0043c6" stroke="none"
    d="M150,3A147,147,0,0,1,156.36800661309204,3.1379950709659568L155.06841342674673,33.10983281158515A117,117,0,0,0,150,33Z"
    transform="matrix(-0.7701,-0.6379,0.6379,-0.7701,169.8387,361.2023)"></path>
  <path style="" fill="#003dc6" stroke="none"
    d="M150,3A147,147,0,0,1,156.36800661309204,3.1379950709659568L155.06841342674673,33.10983281158515A117,117,0,0,0,150,33Z"
    transform="matrix(-0.7485,-0.6632,0.6632,-0.7485,162.7889,361.7462)"></path>
  <path style="" fill="#0036c6" stroke="none"
    d="M150,3A147,147,0,0,1,156.36800661309204,3.1379950709659568L155.06841342674673,33.10983281158515A117,117,0,0,0,150,33Z"
    transform="matrix(-0.7259,-0.6878,0.6878,-0.7259,155.7249,362.0548)"></path>
  <path style="" fill="#0030c6" stroke="none"
    d="M150,3A147,147,0,0,1,156.36800661309204,3.1379950709659568L155.06841342674673,33.10983281158515A117,117,0,0,0,150,33Z"
    transform="matrix(-0.7026,-0.7116,0.7116,-0.7026,148.6546,362.1278)"></path>
  <path style="" fill="#002ac6" stroke="none"
    d="M150,3A147,147,0,0,1,156.36800661309204,3.1379950709659568L155.06841342674673,33.10983281158515A117,117,0,0,0,150,33Z"
    transform="matrix(-0.6785,-0.7346,0.7346,-0.6785,141.5857,361.9651)"></path>
  <path style="" fill="#0023c6" stroke="none"
    d="M150,3A147,147,0,0,1,156.36800661309204,3.1379950709659568L155.06841342674673,33.10983281158515A117,117,0,0,0,150,33Z"
    transform="matrix(-0.6536,-0.7568,0.7568,-0.6536,134.5262,361.5669)"></path>
  <path style="" fill="#001dc6" stroke="none"
    d="M150,3A147,147,0,0,1,156.36800661309204,3.1379950709659568L155.06841342674673,33.10983281158515A117,117,0,0,0,150,33Z"
    transform="matrix(-0.6281,-0.7782,0.7782,-0.6281,127.4838,360.9337)"></path>
  <path style="" fill="#0017c6" stroke="none"
    d="M150,3A147,147,0,0,1,156.36800661309204,3.1379950709659568L155.06841342674673,33.10983281158515A117,117,0,0,0,150,33Z"
    transform="matrix(-0.6018,-0.7987,0.7987,-0.6018,120.4665,360.0661)"></path>
  <path style="" fill="#0010c6" stroke="none"
    d="M150,3A147,147,0,0,1,156.36800661309204,3.1379950709659568L155.06841342674673,33.10983281158515A117,117,0,0,0,150,33Z"
    transform="matrix(-0.5748,-0.8183,0.8183,-0.5748,113.482,358.9652)"></path>
  <path style="" fill="#000ac6" stroke="none"
    d="M150,3A147,147,0,0,1,156.36800661309204,3.1379950709659568L155.06841342674673,33.10983281158515A117,117,0,0,0,150,33Z"
    transform="matrix(-0.5472,-0.837,0.837,-0.5472,106.5381,357.632)"></path>
  <path style="" fill="#0004c6" stroke="none"
    d="M150,3A147,147,0,0,1,156.36800661309204,3.1379950709659568L155.06841342674673,33.10983281158515A117,117,0,0,0,150,33Z"
    transform="matrix(-0.519,-0.8548,0.8548,-0.519,99.6425,356.0682)"></path>
  <path style="" fill="#0200c6" stroke="none"
    d="M150,3A147,147,0,0,1,156.36800661309204,3.1379950709659568L155.06841342674673,33.10983281158515A117,117,0,0,0,150,33Z"
    transform="matrix(-0.4903,-0.8716,0.8716,-0.4903,92.8028,354.2755)"></path>
  <path style="" fill="#0800c6" stroke="none"
    d="M150,3A147,147,0,0,1,156.36800661309204,3.1379950709659568L155.06841342674673,33.10983281158515A117,117,0,0,0,150,33Z"
    transform="matrix(-0.4609,-0.8874,0.8874,-0.4609,86.0266,352.2558)"></path>
  <path style="" fill="#0e00c6" stroke="none"
    d="M150,3A147,147,0,0,1,156.36800661309204,3.1379950709659568L155.06841342674673,33.10983281158515A117,117,0,0,0,150,33Z"
    transform="matrix(-0.4311,-0.9023,0.9023,-0.4311,79.3215,350.0114)"></path>
  <path style="" fill="#1500c6" stroke="none"
    d="M150,3A147,147,0,0,1,156.36800661309204,3.1379950709659568L155.06841342674673,33.10983281158515A117,117,0,0,0,150,33Z"
    transform="matrix(-0.4008,-0.9162,0.9162,-0.4008,72.695,347.5448)"></path>
  <path style="" fill="#1b00c6" stroke="none"
    d="M150,3A147,147,0,0,1,156.36800661309204,3.1379950709659568L155.06841342674673,33.10983281158515A117,117,0,0,0,150,33Z"
    transform="matrix(-0.37,-0.929,0.929,-0.37,66.1543,344.8587)"></path>
  <path style="" fill="#2100c6" stroke="none"
    d="M150,3A147,147,0,0,1,156.36800661309204,3.1379950709659568L155.06841342674673,33.10983281158515A117,117,0,0,0,150,33Z"
    transform="matrix(-0.3389,-0.9408,0.9408,-0.3389,59.7068,341.9561)"></path>
  <path style="" fill="#2800c6" stroke="none"
    d="M150,3A147,147,0,0,1,156.36800661309204,3.1379950709659568L155.06841342674673,33.10983281158515A117,117,0,0,0,150,33Z"
    transform="matrix(-0.3073,-0.9516,0.9516,-0.3073,53.3596,338.8402)"></path>
  <path style="" fill="#2e00c6" stroke="none"
    d="M150,3A147,147,0,0,1,156.36800661309204,3.1379950709659568L155.06841342674673,33.10983281158515A117,117,0,0,0,150,33Z"
    transform="matrix(-0.2754,-0.9613,0.9613,-0.2754,47.1198,335.5146)"></path>
  <path style="" fill="#3400c6" stroke="none"
    d="M150,3A147,147,0,0,1,156.36800661309204,3.1379950709659568L155.06841342674673,33.10983281158515A117,117,0,0,0,150,33Z"
    transform="matrix(-0.2433,-0.97,0.97,-0.2433,40.9943,331.9828)"></path>
  <path style="" fill="#3b00c6" stroke="none"
    d="M150,3A147,147,0,0,1,156.36800661309204,3.1379950709659568L155.06841342674673,33.10983281158515A117,117,0,0,0,150,33Z"
    transform="matrix(-0.2108,-0.9775,0.9775,-0.2108,34.9899,328.2489)"></path>
  <path style="" fill="#4100c6" stroke="none"
    d="M150,3A147,147,0,0,1,156.36800661309204,3.1379950709659568L155.06841342674673,33.10983281158515A117,117,0,0,0,150,33Z"
    transform="matrix(-0.1781,-0.984,0.984,-0.1781,29.1132,324.3169)"></path>
  <path style="" fill="#4700c6" stroke="none"
    d="M150,3A147,147,0,0,1,156.36800661309204,3.1379950709659568L155.06841342674673,33.10983281158515A117,117,0,0,0,150,33Z"
    transform="matrix(-0.1452,-0.9894,0.9894,-0.1452,23.3709,320.1913)"></path>
  <path style="" fill="#4e00c6" stroke="none"
    d="M150,3A147,147,0,0,1,156.36800661309204,3.1379950709659568L155.06841342674673,33.10983281158515A117,117,0,0,0,150,33Z"
    transform="matrix(-0.1122,-0.9937,0.9937,-0.1122,17.7692,315.8765)"></path>
  <path style="" fill="#5400c6" stroke="none"
    d="M150,3A147,147,0,0,1,156.36800661309204,3.1379950709659568L155.06841342674673,33.10983281158515A117,117,0,0,0,150,33Z"
    transform="matrix(-0.079,-0.9969,0.9969,-0.079,12.3145,311.3775)"></path>
  <path style="" fill="#5a00c6" stroke="none"
    d="M150,3A147,147,0,0,1,156.36800661309204,3.1379950709659568L155.06841342674673,33.10983281158515A117,117,0,0,0,150,33Z"
    transform="matrix(-0.0457,-0.999,0.999,-0.0457,7.0127,306.6992)"></path>
  <path style="" fill="#6100c6" stroke="none"
    d="M150,3A147,147,0,0,1,156.36800661309204,3.1379950709659568L155.06841342674673,33.10983281158515A117,117,0,0,0,150,33Z"
    transform="matrix(-0.0124,-0.9999,0.9999,-0.0124,1.8698,301.8468)"></path>
  <path style="" fill="#6700c6" stroke="none"
    d="M150,3A147,147,0,0,1,156.36800661309204,3.1379950709659568L155.06841342674673,33.10983281158515A117,117,0,0,0,150,33Z"
    transform="matrix(0.0209,-0.9998,0.9998,0.0209,-3.1085,296.8257)"></path>
  <path style="" fill="#6d00c6" stroke="none"
    d="M150,3A147,147,0,0,1,156.36800661309204,3.1379950709659568L155.06841342674673,33.10983281158515A117,117,0,0,0,150,33Z"
    transform="matrix(0.0543,-0.9985,0.9985,0.0543,-7.9168,291.6414)"></path>
  <path style="" fill="#7400c6" stroke="none"
    d="M150,3A147,147,0,0,1,156.36800661309204,3.1379950709659568L155.06841342674673,33.10983281158515A117,117,0,0,0,150,33Z"
    transform="matrix(0.0875,-0.9962,0.9962,0.0875,-12.5495,286.2998)"></path>
  <path style="" fill="#7a00c6" stroke="none"
    d="M150,3A147,147,0,0,1,156.36800661309204,3.1379950709659568L155.06841342674673,33.10983281158515A117,117,0,0,0,150,33Z"
    transform="matrix(0.1206,-0.9927,0.9927,0.1206,-17.0017,280.8068)"></path>
  <path style="" fill="#8000c6" stroke="none"
    d="M150,3A147,147,0,0,1,156.36800661309204,3.1379950709659568L155.06841342674673,33.10983281158515A117,117,0,0,0,150,33Z"
    transform="matrix(0.1537,-0.9881,0.9881,0.1537,-21.2684,275.1685)"></path>
  <path style="" fill="#8700c6" stroke="none"
    d="M150,3A147,147,0,0,1,156.36800661309204,3.1379950709659568L155.06841342674673,33.10983281158515A117,117,0,0,0,150,33Z"
    transform="matrix(0.1865,-0.9825,0.9825,0.1865,-25.3447,269.391)"></path>
  <path style="" fill="#8d00c6" stroke="none"
    d="M150,3A147,147,0,0,1,156.36800661309204,3.1379950709659568L155.06841342674673,33.10983281158515A117,117,0,0,0,150,33Z"
    transform="matrix(0.2192,-0.9757,0.9757,0.2192,-29.2263,263.481)"></path>
  <path style="" fill="#9300c6" stroke="none"
    d="M150,3A147,147,0,0,1,156.36800661309204,3.1379950709659568L155.06841342674673,33.10983281158515A117,117,0,0,0,150,33Z"
    transform="matrix(0.2515,-0.9678,0.9678,0.2515,-32.9087,257.4448)"></path>
  <path style="" fill="#9a00c6" stroke="none"
    d="M150,3A147,147,0,0,1,156.36800661309204,3.1379950709659568L155.06841342674673,33.10983281158515A117,117,0,0,0,150,33Z"
    transform="matrix(0.2837,-0.9589,0.9589,0.2837,-36.388,251.2893)"></path>
  <path style="" fill="#a000c6" stroke="none"
    d="M150,3A147,147,0,0,1,156.36800661309204,3.1379950709659568L155.06841342674673,33.10983281158515A117,117,0,0,0,150,33Z"
    transform="matrix(0.3155,-0.9489,0.9489,0.3155,-39.6601,245.0213)"></path>
  <path style="" fill="#a600c6" stroke="none"
    d="M150,3A147,147,0,0,1,156.36800661309204,3.1379950709659568L155.06841342674673,33.10983281158515A117,117,0,0,0,150,33Z"
    transform="matrix(0.3469,-0.9379,0.9379,0.3469,-42.7215,238.6476)"></path>
  <path style="" fill="#ad00c6" stroke="none"
    d="M150,3A147,147,0,0,1,156.36800661309204,3.1379950709659568L155.06841342674673,33.10983281158515A117,117,0,0,0,150,33Z"
    transform="matrix(0.378,-0.9258,0.9258,0.378,-45.5689,232.1755)"></path>
  <path style="" fill="#b300c6" stroke="none"
    d="M150,3A147,147,0,0,1,156.36800661309204,3.1379950709659568L155.06841342674673,33.10983281158515A117,117,0,0,0,150,33Z"
    transform="matrix(0.4086,-0.9127,0.9127,0.4086,-48.1989,225.6121)"></path>
  <path style="" fill="#b900c6" stroke="none"
    d="M150,3A147,147,0,0,1,156.36800661309204,3.1379950709659568L155.06841342674673,33.10983281158515A117,117,0,0,0,150,33Z"
    transform="matrix(0.4388,-0.8986,0.8986,0.4388,-50.6087,218.9647)"></path>
  <path style="" fill="#c000c6" stroke="none"
    d="M150,3A147,147,0,0,1,156.36800661309204,3.1379950709659568L155.06841342674673,33.10983281158515A117,117,0,0,0,150,33Z"
    transform="matrix(0.4685,-0.8835,0.8835,0.4685,-52.7957,212.2407)"></path>
  <path style="" fill="#c600c6" stroke="none"
    d="M150,3A147,147,0,0,1,156.36800661309204,3.1379950709659568L155.06841342674673,33.10983281158515A117,117,0,0,0,150,33Z"
    transform="matrix(0.4977,-0.8673,0.8673,0.4977,-54.7574,205.4475)"></path>
  <path style="" fill="#c600c1" stroke="none"
    d="M150,3A147,147,0,0,1,156.36800661309204,3.1379950709659568L155.06841342674673,33.10983281158515A117,117,0,0,0,150,33Z"
    transform="matrix(0.5263,-0.8503,0.8503,0.5263,-56.4915,198.5927)"></path>
  <path style="" fill="#c600ba" stroke="none"
    d="M150,3A147,147,0,0,1,156.36800661309204,3.1379950709659568L155.06841342674673,33.10983281158515A117,117,0,0,0,150,33Z"
    transform="matrix(0.5544,-0.8323,0.8323,0.5544,-57.9963,191.684)"></path>
  <path style="" fill="#c600b4" stroke="none"
    d="M150,3A147,147,0,0,1,156.36800661309204,3.1379950709659568L155.06841342674673,33.10983281158515A117,117,0,0,0,150,33Z"
    transform="matrix(0.5818,-0.8133,0.8133,0.5818,-59.2699,184.7289)"></path>
  <path style="" fill="#c600ae" stroke="none"
    d="M150,3A147,147,0,0,1,156.36800661309204,3.1379950709659568L155.06841342674673,33.10983281158515A117,117,0,0,0,150,33Z"
    transform="matrix(0.6086,-0.7935,0.7935,0.6086,-60.3111,177.7352)"></path>
  <path style="" fill="#c600a7" stroke="none"
    d="M150,3A147,147,0,0,1,156.36800661309204,3.1379950709659568L155.06841342674673,33.10983281158515A117,117,0,0,0,150,33Z"
    transform="matrix(0.6347,-0.7728,0.7728,0.6347,-61.1186,170.7107)"></path>
  <path style="" fill="#c600a1" stroke="none"
    d="M150,3A147,147,0,0,1,156.36800661309204,3.1379950709659568L155.06841342674673,33.10983281158515A117,117,0,0,0,150,33Z"
    transform="matrix(0.6601,-0.7512,0.7512,0.6601,-61.6916,163.6633)"></path>
  <path style="" fill="#c6009b" stroke="none"
    d="M150,3A147,147,0,0,1,156.36800661309204,3.1379950709659568L155.06841342674673,33.10983281158515A117,117,0,0,0,150,33Z"
    transform="matrix(0.6848,-0.7288,0.7288,0.6848,-62.0293,156.6006)"></path>
  <path style="" fill="#c60094" stroke="none"
    d="M150,3A147,147,0,0,1,156.36800661309204,3.1379950709659568L155.06841342674673,33.10983281158515A117,117,0,0,0,150,33Z"
    transform="matrix(0.7087,-0.7055,0.7055,0.7087,-62.1315,149.5306)"></path>
  <path style="" fill="#c6008e" stroke="none"
    d="M150,3A147,147,0,0,1,156.36800661309204,3.1379950709659568L155.06841342674673,33.10983281158515A117,117,0,0,0,150,33Z"
    transform="matrix(0.7318,-0.6815,0.6815,0.7318,-61.998,142.4611)"></path>
  <path style="" fill="#c60088" stroke="none"
    d="M150,3A147,147,0,0,1,156.36800661309204,3.1379950709659568L155.06841342674673,33.10983281158515A117,117,0,0,0,150,33Z"
    transform="matrix(0.7541,-0.6568,0.6568,0.7541,-61.629,135.4)"></path>
  <path style="" fill="#c60081" stroke="none"
    d="M150,3A147,147,0,0,1,156.36800661309204,3.1379950709659568L155.06841342674673,33.10983281158515A117,117,0,0,0,150,33Z"
    transform="matrix(0.7756,-0.6313,0.6313,0.7756,-61.0249,128.3551)"></path>
  <path style="" fill="#c6007b" stroke="none"
    d="M150,3A147,147,0,0,1,156.36800661309204,3.1379950709659568L155.06841342674673,33.10983281158515A117,117,0,0,0,150,33Z"
    transform="matrix(0.7962,-0.6051,0.6051,0.7962,-60.1863,121.3343)"></path>
  <path style="" fill="#c60075" stroke="none"
    d="M150,3A147,147,0,0,1,156.36800661309204,3.1379950709659568L155.06841342674673,33.10983281158515A117,117,0,0,0,150,33Z"
    transform="matrix(0.8159,-0.5782,0.5782,0.8159,-59.1142,114.3453)"></path>
  <path style="" fill="#c6006e" stroke="none"
    d="M150,3A147,147,0,0,1,156.36800661309204,3.1379950709659568L155.06841342674673,33.10983281158515A117,117,0,0,0,150,33Z"
    transform="matrix(0.8347,-0.5507,0.5507,0.8347,-57.8097,107.3959)"></path>
  <path style="" fill="#c60068" stroke="none"
    d="M150,3A147,147,0,0,1,156.36800661309204,3.1379950709659568L155.06841342674673,33.10983281158515A117,117,0,0,0,150,33Z"
    transform="matrix(0.8526,-0.5226,0.5226,0.8526,-56.2744,100.4939)"></path>
  <path style="" fill="#c60062" stroke="none"
    d="M150,3A147,147,0,0,1,156.36800661309204,3.1379950709659568L155.06841342674673,33.10983281158515A117,117,0,0,0,150,33Z"
    transform="matrix(0.8695,-0.4939,0.4939,0.8695,-54.51,93.6468)"></path>
  <path style="" fill="#c6005b" stroke="none"
    d="M150,3A147,147,0,0,1,156.36800661309204,3.1379950709659568L155.06841342674673,33.10983281158515A117,117,0,0,0,150,33Z"
    transform="matrix(0.8855,-0.4646,0.4646,0.8855,-52.5183,86.8624)"></path>
  <path style="" fill="#c60055" stroke="none"
    d="M150,3A147,147,0,0,1,156.36800661309204,3.1379950709659568L155.06841342674673,33.10983281158515A117,117,0,0,0,150,33Z"
    transform="matrix(0.9005,-0.4348,0.4348,0.9005,-50.3016,80.1481)"></path>
  <path style="" fill="#c6004f" stroke="none"
    d="M150,3A147,147,0,0,1,156.36800661309204,3.1379950709659568L155.06841342674673,33.10983281158515A117,117,0,0,0,150,33Z"
    transform="matrix(0.9145,-0.4046,0.4046,0.9145,-47.8623,73.5114)"></path>
  <path style="" fill="#c60048" stroke="none"
    d="M150,3A147,147,0,0,1,156.36800661309204,3.1379950709659568L155.06841342674673,33.10983281158515A117,117,0,0,0,150,33Z"
    transform="matrix(0.9275,-0.3739,0.3739,0.9275,-45.2033,66.9597)"></path>
  <path style="" fill="#c60042" stroke="none"
    d="M150,3A147,147,0,0,1,156.36800661309204,3.1379950709659568L155.06841342674673,33.10983281158515A117,117,0,0,0,150,33Z"
    transform="matrix(0.9394,-0.3428,0.3428,0.9394,-42.3273,60.5003)"></path>
  <path style="" fill="#c6003c" stroke="none"
    d="M150,3A147,147,0,0,1,156.36800661309204,3.1379950709659568L155.06841342674673,33.10983281158515A117,117,0,0,0,150,33Z"
    transform="matrix(0.9503,-0.3113,0.3113,0.9503,-39.2377,54.1403)"></path>
  <path style="" fill="#c60035" stroke="none"
    d="M150,3A147,147,0,0,1,156.36800661309204,3.1379950709659568L155.06841342674673,33.10983281158515A117,117,0,0,0,150,33Z"
    transform="matrix(0.9602,-0.2794,0.2794,0.9602,-35.9379,47.8868)"></path>
  <path style="" fill="#c6002f" stroke="none"
    d="M150,3A147,147,0,0,1,156.36800661309204,3.1379950709659568L155.06841342674673,33.10983281158515A117,117,0,0,0,150,33Z"
    transform="matrix(0.9689,-0.2473,0.2473,0.9689,-32.4314,41.7467)"></path>
  <path style="" fill="#c60029" stroke="none"
    d="M150,3A147,147,0,0,1,156.36800661309204,3.1379950709659568L155.06841342674673,33.10983281158515A117,117,0,0,0,150,33Z"
    transform="matrix(0.9767,-0.2148,0.2148,0.9767,-28.7223,35.7269)"></path>
  <path style="" fill="#c60022" stroke="none"
    d="M150,3A147,147,0,0,1,156.36800661309204,3.1379950709659568L155.06841342674673,33.10983281158515A117,117,0,0,0,150,33Z"
    transform="matrix(0.9833,-0.1822,0.1822,0.9833,-24.8146,29.8341)"></path>
  <path style="" fill="#c6001c" stroke="none"
    d="M150,3A147,147,0,0,1,156.36800661309204,3.1379950709659568L155.06841342674673,33.10983281158515A117,117,0,0,0,150,33Z"
    transform="matrix(0.9888,-0.1493,0.1493,0.9888,-20.7127,24.0748)"></path>
  <path style="" fill="#c60016" stroke="none"
    d="M150,3A147,147,0,0,1,156.36800661309204,3.1379950709659568L155.06841342674673,33.10983281158515A117,117,0,0,0,150,33Z"
    transform="matrix(0.9932,-0.1163,0.1163,0.9932,-16.4212,18.4554)"></path>
  <path style="" fill="#c6000f" stroke="none"
    d="M150,3A147,147,0,0,1,156.36800661309204,3.1379950709659568L155.06841342674673,33.10983281158515A117,117,0,0,0,150,33Z"
    transform="matrix(0.9965,-0.0831,0.0831,0.9965,-11.9447,12.9821)"></path>
  <path style="" fill="#c60009" stroke="none"
    d="M150,3A147,147,0,0,1,156.36800661309204,3.1379950709659568L155.06841342674673,33.10983281158515A117,117,0,0,0,150,33Z"
    transform="matrix(0.9988,-0.0498,0.0498,0.9988,-7.2883,7.6611)"></path>
  <path style="" fill="#c60003" stroke="none"
    d="M150,3A147,147,0,0,1,156.36800661309204,3.1379950709659568L155.06841342674673,33.10983281158515A117,117,0,0,0,150,33Z"
    transform="matrix(0.9999,-0.0165,0.0165,0.9999,-2.4572,2.4981)"></path>
  <path style="" fill="none" stroke="#ffffff" d="M150,3A147,147,0,1,1,149,3L150,3M150,33A117,117,0,1,1,149,33L150,33"
    stroke-width="4.5"></path>
  <rect x="140.11145617969675" y="2" width="19.777087640606496" height="32" r="4.5" rx="4.5" ry="4.5" fill="none"
    stroke="#000000" style="opacity: 0.5;" opacity="0.5" stroke-width="4.5" transform="matrix(1,0,0,1,0,0)"></rect>
  <rect x="140.11145617969675" y="2" width="19.777087640606496" height="32" r="0" rx="4.5" ry="4.5" fill="none"
    stroke="#ffffff" style="opacity: 1;" opacity="1" stroke-width="1.5" transform="matrix(1,0,0,1,0,0)"></rect>
  <path style="opacity: 0;" fill="#000000" stroke="none"
    d="M150,3A147,147,0,1,1,149,3L150,3M150,33A117,117,0,1,1,149,33L150,33" opacity="0"></path>
  <rect x="73" y="73" width="154" height="154" r="0" rx="0" ry="0" fill="#ff0000" stroke="none" style="opacity: 1;"
    opacity="1"></rect>
  <rect x="73" y="73" width="154" height="154" r="0" rx="0" ry="0" fill="url(#4330--fff--fff)" stroke="none"
    style="opacity: 1; fill-opacity: 1;" opacity="1" transform="matrix(1,0,0,1,0,0)" fill-opacity="1"
    stroke-opacity="0"></rect>
  <rect x="72" y="72" width="156" height="156" r="0" rx="2" ry="2" fill="url(#43490--000--000)" stroke="#ffffff"
    style="opacity: 1; fill-opacity: 1; cursor: crosshair;" stroke-width="4.5" opacity="1" fill-opacity="1"
    stroke-opacity="0"></rect>
  <circle cx="73" cy="227" r="7.5" fill="none" stroke="#000000" style="opacity: 0.5;" opacity="0.5" stroke-width="4.5">
  </circle>
  <circle cx="73" cy="227" r="7.5" fill="none" stroke="#ffffff" style="opacity: 1;" opacity="1" stroke-width="1.5"
    transform="matrix(1,0,0,1,0,0)"></circle>
</svg>